<svg xmlns="http://www.w3.org/2000/svg" xmlns:xlink="http://www.w3.org/1999/xlink" id="Layer_1" data-name="Layer 1" viewBox="0 0 181.16 39.07"> <defs> <style>.cls-1{fill:none;}.cls-2,.cls-9{fill:#6d3eb4;}.cls-3{fill:#414c5c;}.cls-4{fill:#6e6f72;}.cls-5{clip-path:url(#clip-path);}.cls-11,.cls-13,.cls-6,.cls-9{opacity:0.07;}.cls-6{fill:url(#Безымянный_градиент_17);}.cls-7{fill:#90d234;}.cls-8{clip-path:url(#clip-path-2);}.cls-10{clip-path:url(#clip-path-3);}.cls-11{fill:url(#Безымянный_градиент_17-2);}.cls-12{clip-path:url(#clip-path-4);}.cls-13{fill:url(#Безымянный_градиент_17-3);}</style> <clipPath id="clip-path" transform="translate(-4.04 -3.2)"> <polygon class="cls-1" points="15.92 22.85 27.8 41.78 4.04 41.78 15.92 22.85"/> </clipPath> <linearGradient id="Безымянный_градиент_17" x1="37.48" y1="32.17" x2="16.43" y2="32.17" gradientTransform="translate(49.31 15.02) rotate(90)" gradientUnits="userSpaceOnUse"> <stop offset="0" stop-color="#fff"/> <stop offset="0.18" stop-color="#fff" stop-opacity="0.99"/> <stop offset="0.31" stop-color="#fff" stop-opacity="0.95"/> <stop offset="0.43" stop-color="#fff" stop-opacity="0.89"/> <stop offset="0.54" stop-color="#fff" stop-opacity="0.8"/> <stop offset="0.64" stop-color="#fff" stop-opacity="0.69"/> <stop offset="0.74" stop-color="#fff" stop-opacity="0.55"/> <stop offset="0.83" stop-color="#fff" stop-opacity="0.38"/> <stop offset="0.92" stop-color="#fff" stop-opacity="0.19"/> <stop offset="1" stop-color="#fff" stop-opacity="0"/> </linearGradient> <clipPath id="clip-path-2" transform="translate(-4.04 -3.2)"> <circle class="cls-2" cx="27.91" cy="26.53" r="1.8"/> </clipPath> <clipPath id="clip-path-3" transform="translate(-4.04 -3.2)"> <polygon class="cls-1" points="22.14 27.77 28.17 34.96 33.21 27.47 28.19 29.89 22.14 27.77"/> </clipPath> <linearGradient id="Безымянный_градиент_17-2" x1="35.15" y1="32.6" x2="17.02" y2="32.6" gradientTransform="translate(50.24 14.97) rotate(90)" xlink:href="#Безымянный_градиент_17"/> <clipPath id="clip-path-4" transform="translate(-4.04 -3.2)"> <polygon class="cls-1" points="27.8 3.93 39.68 22.85 15.92 22.85 27.8 3.93"/> </clipPath> <linearGradient id="Безымянный_градиент_17-3" x1="35.15" y1="13.21" x2="17.02" y2="13.21" gradientTransform="translate(30.85 -4.42) rotate(90)" xlink:href="#Безымянный_градиент_17"/> </defs> <title>logo 1 mok horizont-01</title> <path class="cls-3" d="M75.48,3.39a0.29,0.29,0,0,1,.09.21V4.39a0.3,0.3,0,0,1-.3.3H71.69v6.06a0.3,0.3,0,0,1-.3.3h-0.9a0.3,0.3,0,0,1-.3-0.3V3.6a0.3,0.3,0,0,1,.3-0.3h4.78A0.29,0.29,0,0,1,75.48,3.39Z" transform="translate(-4.04 -3.2)"/> <path class="cls-3" d="M96.61,11a0.29,0.29,0,0,1-.09-0.21V3.6a0.3,0.3,0,0,1,.3-0.3h4.83a0.3,0.3,0,0,1,.3.3V4.39a0.3,0.3,0,0,1-.3.3H98V6.36h2.09a2.5,2.5,0,0,1,1.23.29,2,2,0,0,1,.82.82,2.49,2.49,0,0,1,.29,1.23,2.57,2.57,0,0,1-.27,1.19,2.05,2.05,0,0,1-.81.85,2.45,2.45,0,0,1-1.26.31H96.82A0.28,0.28,0,0,1,96.61,11Zm3.26-1.29a1.1,1.1,0,0,0,.81-0.27,1,1,0,0,0,0-1.38,1.1,1.1,0,0,0-.81-0.27H98V9.66h1.86Z" transform="translate(-4.04 -3.2)"/> <path class="cls-3" d="M129.85,3.39a0.29,0.29,0,0,1,.09.21v7.14a0.3,0.3,0,0,1-.3.3h-0.9a0.29,0.29,0,0,1-.21-0.09,0.29,0.29,0,0,1-.09-0.21V4.69h-3.34v6.06a0.3,0.3,0,0,1-.3.3h-0.9a0.3,0.3,0,0,1-.3-0.3V3.6a0.3,0.3,0,0,1,.3-0.3h5.73A0.28,0.28,0,0,1,129.85,3.39Z" transform="translate(-4.04 -3.2)"/> <path class="cls-3" d="M156.92,4a3.19,3.19,0,0,1,.88,2.17c0,0.34,0,.63,0,0.88s0,0.7,0,1.09a3.17,3.17,0,0,1-.88,2.16,3.79,3.79,0,0,1-4.73,0,3.18,3.18,0,0,1-.88-2.16q0-.6,0-1.09c0-.25,0-0.55,0-0.88A3.2,3.2,0,0,1,152.19,4,3.78,3.78,0,0,1,156.92,4Zm-3.61,1a1.74,1.74,0,0,0-.52,1.23c0,0.37,0,.68,0,0.93s0,0.57,0,.94a1.72,1.72,0,0,0,.52,1.22,2,2,0,0,0,2.49,0,1.73,1.73,0,0,0,.51-1.22c0-.18,0-0.5,0-0.94s0-.74,0-0.93A1.75,1.75,0,0,0,155.8,5,2,2,0,0,0,153.31,5Z" transform="translate(-4.04 -3.2)"/> <path class="cls-3" d="M178.41,3.6a0.29,0.29,0,0,1,.09-0.2,0.28,0.28,0,0,1,.21-0.09h0.83a0.48,0.48,0,0,1,.29.07,0.69,0.69,0,0,1,.17.2L181.8,7l1.8-3.42a0.69,0.69,0,0,1,.17-0.2,0.48,0.48,0,0,1,.29-0.07h0.83a0.3,0.3,0,0,1,.3.3,0.22,0.22,0,0,1,0,.1l-2.7,5.09-0.11.2a11.7,11.7,0,0,1-.65,1.12,2.41,2.41,0,0,1-.69.67,1.84,1.84,0,0,1-1,.27h-0.83a0.3,0.3,0,0,1-.3-0.3V10a0.3,0.3,0,0,1,.3-0.3h0.63a0.79,0.79,0,0,0,.59-0.26,4.34,4.34,0,0,0,.6-0.87L178.43,3.7A0.22,0.22,0,0,1,178.41,3.6Z" transform="translate(-4.04 -3.2)"/> <polygon class="cls-4" points="11.88 19.66 23.76 38.58 0 38.58 11.88 19.66"/> <g class="cls-5"> <rect class="cls-6" x="7.56" y="20.29" width="19.18" height="23.75" transform="translate(-19.06 46.12) rotate(-90)"/> </g> <polygon class="cls-7" points="35.65 19.66 47.53 38.58 23.76 38.58 35.65 19.66"/> <circle class="cls-2" cx="23.88" cy="23.34" r="1.8"/> <circle class="cls-2" cx="23.88" cy="23.34" r="1.8"/> <g class="cls-8"> <rect class="cls-9" x="6.34" y="20.29" width="19.18" height="23.75" transform="translate(-20.27 44.91) rotate(-90)"/> </g> <polygon class="cls-7" points="18.11 24.58 24.14 31.77 29.18 24.28 24.16 26.7 18.11 24.58"/> <polygon class="cls-2" points="23.77 0.73 35.65 19.66 11.88 19.66 23.77 0.73"/> <g class="cls-10"> <rect class="cls-11" x="7.98" y="22.38" width="19.31" height="20.44" transform="translate(-19 47.05) rotate(-90)"/> </g> <g class="cls-12"> <rect class="cls-13" x="7.98" y="2.99" width="19.31" height="20.44" transform="translate(0.39 27.66) rotate(-90)"/> </g> <path class="cls-3" d="M76.39,40.63a0.88,0.88,0,0,1-.65.27H74.35A0.93,0.93,0,0,1,73.43,40V21.24l-5.51,4.18a0.85,0.85,0,0,1-.58.2,0.87,0.87,0,0,1-.71-0.34l-0.82-1.05a1,1,0,0,1-.2-0.58A0.84,0.84,0,0,1,66,22.94l7.28-5.58a1.84,1.84,0,0,1,1.09-.27h1.39a0.93,0.93,0,0,1,.92.92V40A0.88,0.88,0,0,1,76.39,40.63Z" transform="translate(-4.04 -3.2)"/> <path class="cls-3" d="M102.6,40.63a0.89,0.89,0,0,1-.27-0.65V28.59l-9.9,11.94a0.87,0.87,0,0,1-.75.37H90.52a0.83,0.83,0,0,1-.63-0.27A0.91,0.91,0,0,1,89.64,40V24.13a0.93,0.93,0,0,1,.92-0.92h1.26a0.92,0.92,0,0,1,.92.92v11.5l9.9-12A1.2,1.2,0,0,1,103,23.3a0.9,0.9,0,0,1,.43-0.08h1.12a0.93,0.93,0,0,1,.92.92V40a0.93,0.93,0,0,1-.92.92h-1.26A0.88,0.88,0,0,1,102.6,40.63ZM93.48,16.09A0.61,0.61,0,0,1,94,15.9H95a0.61,0.61,0,0,1,.48.19,0.65,0.65,0,0,1,.17.46A2.18,2.18,0,0,0,96.18,18a1.85,1.85,0,0,0,2.69,0,2.18,2.18,0,0,0,.49-1.46,0.65,0.65,0,0,1,.17-0.46A0.61,0.61,0,0,1,100,15.9h1.09a0.61,0.61,0,0,1,.48.19,0.65,0.65,0,0,1,.17.46,4.51,4.51,0,0,1-1.09,3,4.43,4.43,0,0,1-6.26,0,4.51,4.51,0,0,1-1.09-3A0.65,0.65,0,0,1,93.48,16.09Z" transform="translate(-4.04 -3.2)"/> <path class="cls-3" d="M137.59,18.18a1.66,1.66,0,0,1,1.5-1.09h1.29a0.93,0.93,0,0,1,.92.92V40a0.93,0.93,0,0,1-.92.92H139a0.93,0.93,0,0,1-.92-0.92V23.86L132.76,34.1a2.52,2.52,0,0,1-.6.82,1.19,1.19,0,0,1-.8.27h-1.29a1.19,1.19,0,0,1-.8-0.27,2.49,2.49,0,0,1-.6-0.82l-5.31-10.24V40a0.93,0.93,0,0,1-.92.92h-1.39a0.93,0.93,0,0,1-.92-0.92V18a0.92,0.92,0,0,1,.92-0.92h1.29a1.66,1.66,0,0,1,1.5,1.09l6.87,13.3Z" transform="translate(-4.04 -3.2)"/> <path class="cls-3" d="M159.29,18a8.21,8.21,0,0,1,3.21,3.32A10.46,10.46,0,0,1,163.68,26q0.07,2,.07,3t-0.07,3a10.79,10.79,0,0,1-1.21,4.68,8.25,8.25,0,0,1-3.2,3.32,10.75,10.75,0,0,1-10,0,8.25,8.25,0,0,1-3.2-3.32A10.79,10.79,0,0,1,144.9,32q0-1,0-3t0-3a10.46,10.46,0,0,1,1.17-4.68A8.2,8.2,0,0,1,149.29,18,10.82,10.82,0,0,1,159.29,18Zm-9.39,3.44a6.57,6.57,0,0,0-1.77,4.73q0,1,0,2.86t0,2.86a6.58,6.58,0,0,0,1.77,4.73,6.83,6.83,0,0,0,8.78,0,6.57,6.57,0,0,0,1.77-4.73c0-1.36.07-2.31,0.07-2.86s0-1.5-.07-2.86a6.57,6.57,0,0,0-1.77-4.73A6.82,6.82,0,0,0,149.9,21.41Z" transform="translate(-4.04 -3.2)"/> <path class="cls-3" d="M183.77,39.54a0.94,0.94,0,0,1,.34.61,0.76,0.76,0,0,1-.75.75h-2.11a1.67,1.67,0,0,1-1.22-.51l-9.63-9.18V40a0.93,0.93,0,0,1-.92.92h-1.39a0.93,0.93,0,0,1-.92-0.92V18a0.92,0.92,0,0,1,.92-0.92h1.39a0.93,0.93,0,0,1,.92.92v7.92l9.08-8.33a1.67,1.67,0,0,1,1.22-.51h2a0.72,0.72,0,0,1,.53.22,0.72,0.72,0,0,1,.22.53,0.94,0.94,0,0,1-.34.61l-10.92,10Z" transform="translate(-4.04 -3.2)"/> <circle id="_Path_" data-name="&lt;Path&gt;" class="cls-3" cx="78.56" cy="26.03" r="1.94"/> </svg>